<?xml version="1.0" encoding="UTF-8"?>
<svg width="394px" height="31px" viewBox="0 0 394 31" version="1.1" xmlns="http://www.w3.org/2000/svg" xmlns:xlink="http://www.w3.org/1999/xlink">
    <!-- Generator: Sketch 61.2 (89653) - https://sketch.com -->
    <title>Group 2</title>
    <desc>Created with Sketch.</desc>
    <g id="Page-1" stroke="none" stroke-width="1" fill="none" fill-rule="evenodd">
        <g id="Artboard" transform="translate(-72.000000, -118.000000)">
            <g id="Group-2" transform="translate(71.000000, 108.000000)">
                <text id="GBR-Pitch" fill="#0C1937" font-family="Poppins-SemiBold, Poppins SemiBold" font-size="32" font-weight="500" line-spacing="47">
                    <tspan x="0" y="34">GBR Pitch</tspan>
                </text>
                <text id="by" font-family="ProximaNova-Regular, Proxima Nova" font-size="20" font-weight="normal" fill="#1F2B40">
                    <tspan x="161" y="33">by</tspan>
                </text>
                <g id="logo-on-white" transform="translate(191.000000, 10.000000)" fill-rule="nonzero">
                    <path d="M32.5466599,21 L35.8505864,13.6741627 L25.6858746,7.358233 L37.0520143,7.358233 C38.6170321,7.34220273 39.09128,6.46053741 39.8342682,4.80941872 L42,0.00033517653 L15.963794,0.00033517653 C15.0785314,-0.015695102 14.1774605,0.545364645 13.8771035,1.23466662 L11,7.59868718 L32.5466599,21 Z" id="Path" fill="#00C575"></path>
                    <g id="Group" transform="translate(0.000000, 7.000000)" fill="#002D30">
                        <path d="M6.25746339,9.8238884 L16.4955015,16.0226678 L5.04736869,16.0226678 C3.47106112,16.0383609 2.99339216,16.9014821 2.24504412,18.5178727 L0.0477668961,23.2258065 L26.2717929,23.2258065 C27.1793639,23.2258065 28.0710126,22.6765475 28.3894586,22.0017437 L31.2713947,15.771578 L9.58522382,2.65213601 L6.25746339,9.8238884 Z" id="Path"></path>
                        <path d="M138.523999,5.52397559 C138.523999,3.76634699 137.998563,2.47951177 136.963613,1.67916303 C135.928664,0.878814298 134.209056,0.486486486 131.804789,0.486486486 L125.945383,0.486486486 L125.945383,15.9912816 L128.604407,15.9912816 L128.604407,10.7811683 L132.09139,10.7811683 L135.849053,15.9912816 L139.22458,15.9912816 L135.132549,10.3574542 C137.393516,9.68265039 138.523999,8.08195292 138.523999,5.52397559 Z M131.932167,8.39581517 L128.620329,8.39581517 L128.620329,2.85614647 L131.995856,2.85614647 C133.428863,2.85614647 134.416046,3.04446382 134.973326,3.42109852 C135.530607,3.79773322 135.801286,4.48823017 135.801286,5.50828248 C135.801286,6.52833479 135.530607,7.25021796 134.989248,7.72101133 C134.44789,8.1761116 133.428863,8.39581517 131.932167,8.39581517 Z" id="Shape"></path>
                        <path d="M57.1451301,8.53705318 C56.3330928,7.84655623 55.1070758,7.2972973 53.4989237,6.9206626 C51.8907715,6.5440279 50.8398998,6.18308631 50.3303862,5.83783784 C49.836795,5.50828248 49.5820382,5.02179599 49.5820382,4.39407149 C49.5820382,3.76634699 49.836795,3.29555362 50.3303862,2.98169137 C50.8239775,2.66782912 51.4608694,2.51089799 52.2251398,2.51089799 C52.9894101,2.51089799 53.785525,2.63644289 54.58164,2.90322581 C55.3777549,3.17000872 56.0146469,3.51525719 56.4763935,3.92327812 L57.8934781,1.94594595 C57.1769747,1.34960767 56.3171705,0.894507411 55.329988,0.564952049 C54.3428055,0.235396687 53.3397007,0.0784655623 52.3365959,0.0784655623 C50.7762106,0.0784655623 49.4705821,0.470793374 48.4037881,1.23975588 C47.3529164,2.0087184 46.8115582,3.12292938 46.8115582,4.55100262 C46.8115582,5.97907585 47.2733049,7.0462075 48.2127205,7.75239756 C48.6744672,8.12903226 49.2158253,8.42720139 49.8049504,8.64690497 C50.4099977,8.88230166 51.2857241,9.13339146 52.4321296,9.40017437 C53.5944575,9.66695728 54.4064947,9.98081953 54.8682414,10.3103749 C55.3459103,10.6399303 55.5847448,11.1107236 55.5847448,11.7070619 C55.5847448,12.3034002 55.329988,12.7898867 54.8363968,13.1508282 C54.3268832,13.5117698 53.6581466,13.7000872 52.7983425,13.7000872 C51.0946566,13.7000872 49.4387375,13.0252833 47.8465076,11.6599826 L46.1746663,13.6373147 C48.0853421,15.3007847 50.266697,16.1482127 52.718731,16.1482127 C54.4064947,16.1482127 55.7598901,15.7244987 56.7948395,14.8770706 C57.8297889,14.0296425 58.3552248,12.9311247 58.3552248,11.581517 C58.3711471,10.2632956 57.9730896,9.22755013 57.1451301,8.53705318 Z" id="Path"></path>
                        <rect id="Rectangle" x="64.9948233" y="0.486486486" width="2.65902388" height="15.5047951"></rect>
                        <polygon id="Path" points="77.8281961 0.486486486 75.1691722 0.486486486 75.1691722 15.9912816 83.8945919 15.9912816 85.0091528 13.5117698 77.8281961 13.5117698"></polygon>
                        <polygon id="Path" points="94.880978 12.0680035 90.0405992 0.486486486 87.0790516 0.486486486 93.4002042 15.9912816 96.3617518 15.9912816 102.698827 0.486486486 99.7213568 0.486486486"></polygon>
                        <polygon id="Path" points="110.421142 9.38448126 117.952389 9.38448126 117.952389 7.0462075 110.421142 7.0462075 110.421142 2.95030514 118.812193 2.95030514 118.812193 0.486486486 107.762118 0.486486486 107.762118 15.9912816 119.082872 15.9912816 119.082872 13.5274629 110.421142 13.5274629"></polygon>
                        <polygon id="Path" points="196.78369 13.5117698 196.78369 0.486486486 194.124666 0.486486486 194.124666 15.9912816 202.850086 15.9912816 203.964646 13.5117698"></polygon>
                        <path d="M169.333647,0.486486486 L162.407447,15.9912816 L165.241616,15.9912816 L166.817924,12.4603313 L174.699461,12.4603313 L176.275769,15.9912816 L179.109938,15.9912816 L172.183738,0.486486486 L169.333647,0.486486486 Z M167.90064,10.043592 L170.766654,3.6564952 L173.616745,10.043592 L167.90064,10.043592 Z" id="Shape"></path>
                        <rect id="Rectangle" x="184.443908" y="0.486486486" width="2.65902388" height="15.5047951"></rect>
                        <path d="M157.949203,5.52397559 C157.949203,3.76634699 157.423767,2.47951177 156.388818,1.67916303 C155.353869,0.878814298 153.63426,0.486486486 151.229993,0.486486486 L145.370587,0.486486486 L145.370587,15.9912816 L148.029611,15.9912816 L148.029611,10.7811683 L151.516595,10.7811683 L155.274257,15.9912816 L158.649784,15.9912816 L154.557754,10.3574542 C156.81872,9.68265039 157.949203,8.08195292 157.949203,5.52397559 Z M151.357372,8.39581517 L148.045533,8.39581517 L148.045533,2.85614647 L151.421061,2.85614647 C152.854068,2.85614647 153.84125,3.04446382 154.398531,3.42109852 C154.955811,3.79773322 155.22649,4.48823017 155.22649,5.50828248 C155.22649,6.52833479 154.955811,7.25021796 154.414453,7.72101133 C153.873095,8.1761116 152.854068,8.39581517 151.357372,8.39581517 Z" id="Shape"></path>
                    </g>
                </g>
            </g>
        </g>
    </g>
</svg>