<svg width="190" height="29" viewBox="0 0 190 29" fill="none" xmlns="http://www.w3.org/2000/svg">
<path d="M8.87868 8.88477L5.78274 15.669L15.3209 21.525H4.64696C3.17226 21.5402 2.72955 22.3554 2.03037 23.8912L0 28.3397H24.4286C25.2713 28.3397 26.1109 27.8206 26.4009 27.1825L29.0908 21.2899L8.87868 8.88477Z" fill="#153E3F"/>
<path d="M29.9279 19.4519L33.0239 12.6677L23.4857 6.81472H34.1597C35.6343 6.79945 36.0771 5.98425 36.7762 4.4485L38.8066 0H14.378C13.5354 0 12.6957 0.519042 12.4057 1.15716L9.71582 7.04982L29.9279 19.4519Z" fill="#00C575"/>
<path d="M125.859 16.1665C127.969 15.5375 129.025 14.014 129.025 11.5959C129.025 9.93187 128.543 8.72281 127.578 7.96867C126.613 7.21453 125.013 6.83594 122.775 6.83594H117.322V21.4943H119.798V16.5665H123.05L126.552 21.4943H129.697L125.859 16.1665ZM122.879 14.3224H119.795V9.08003H122.94C124.268 9.08003 125.19 9.25712 125.709 9.61434C126.225 9.97156 126.485 10.628 126.485 11.5867C126.485 12.5454 126.235 13.2415 125.731 13.6751C125.23 14.1056 124.277 14.3224 122.879 14.3224Z" fill="#153E3F"/>
<path d="M48.6283 8.76535C47.9077 8.76535 47.3184 8.91191 46.8543 9.20501C46.3933 9.49812 46.1613 9.94389 46.1613 10.5362C46.1613 11.1316 46.3933 11.5834 46.8543 11.901C47.3154 12.2155 48.2985 12.5544 49.8007 12.9177C51.3028 13.281 52.4356 13.7909 53.1989 14.4504C53.9591 15.1068 54.3408 16.0747 54.3408 17.354C54.3408 18.6333 53.8584 19.6713 52.8936 20.4682C51.9288 21.2651 50.6617 21.662 49.0984 21.662C46.8055 21.662 44.7721 20.8713 42.9951 19.2928L44.5461 17.4273C46.0269 18.7126 47.5657 19.3569 49.1595 19.3569C49.9564 19.3569 50.5884 19.1859 51.0586 18.8439C51.5257 18.502 51.7608 18.0471 51.7608 17.4822C51.7608 16.9143 51.541 16.4747 51.1013 16.1602C50.6617 15.8457 49.9014 15.5587 48.8267 15.2992C47.7489 15.0397 46.9307 14.8046 46.3719 14.5847C45.8132 14.368 45.3155 14.084 44.882 13.7359C44.0149 13.0795 43.5813 12.072 43.5813 10.7163C43.5813 9.36073 44.0729 8.31654 45.0591 7.58072C46.0453 6.84795 47.2635 6.47852 48.7198 6.47852C49.6572 6.47852 50.5853 6.63118 51.5105 6.93955C52.4325 7.24792 53.2294 7.68147 53.9011 8.24021L52.5791 10.1057C52.1455 9.7149 51.5593 9.39126 50.8174 9.1409C50.0785 8.89054 49.3488 8.76535 48.6283 8.76535Z" fill="#153E3F"/>
<path d="M62.9877 6.83594H60.5146V21.4974H62.9877V6.83594Z" fill="#153E3F"/>
<path d="M69.9941 21.4943V6.83594H72.4672V19.1464H79.1598L78.1248 21.4943H69.9941Z" fill="#153E3F"/>
<path d="M89.742 21.4943H86.9727L81.0801 6.83594H83.8493L88.3589 17.7816L92.8684 6.83594H95.6346L89.742 21.4943Z" fill="#153E3F"/>
<path d="M110.654 6.83594V9.16247H102.829V13.0431H109.857V15.2444H102.829V19.1678H110.904V21.4943H100.355V6.83594H110.654Z" fill="#153E3F"/>
<path d="M180.834 21.4943V6.83594H183.307V19.1464H190L188.965 21.4943H180.834Z" fill="#153E3F"/>
<path d="M166.838 21.4944L160.378 6.83301H157.737L151.276 21.4944H153.92L155.389 18.1603H162.729L164.197 21.4944H166.838ZM161.721 15.8735H156.397L159.059 9.83429L161.721 15.8735Z" fill="#153E3F"/>
<path d="M174.285 6.83594H171.809V21.4974H174.285V6.83594Z" fill="#153E3F"/>
<path d="M143.958 16.1665C146.07 15.5375 147.124 14.014 147.124 11.5959C147.124 9.93187 146.641 8.72281 145.677 7.96867C144.712 7.21453 143.112 6.83594 140.874 6.83594H135.421V21.4943H137.897V16.5665H141.149L144.651 21.4943H147.795L143.958 16.1665ZM140.978 14.3224H137.894V9.08003H141.039C142.367 9.08003 143.289 9.25712 143.808 9.61434C144.324 9.97156 144.584 10.628 144.584 11.5867C144.584 12.5454 144.333 13.2415 143.829 13.6751C143.329 14.1056 142.376 14.3224 140.978 14.3224Z" fill="#153E3F"/>
</svg>
