<?xml version="1.0" encoding="UTF-8"?>
<svg width="669px" height="100px" viewBox="0 0 669 100" version="1.1" xmlns="http://www.w3.org/2000/svg" xmlns:xlink="http://www.w3.org/1999/xlink">
    <!-- Generator: Sketch 61.2 (89653) - https://sketch.com -->
    <title>logo-all-white</title>
    <desc>Created with Sketch.</desc>
    <g id="Page-1" stroke="none" stroke-width="1" fill="none" fill-rule="evenodd">
        <g id="Artboard" fill="#FFFFFF" fill-rule="nonzero">
            <g id="logo-all-white" transform="translate(0.000000, 0.000000)">
                <path d="M105.54637,68.4667447 L116.461358,44.6 L82.8807963,24.0234192 L120.430445,24.0234192 C125.600703,23.9711944 127.167447,21.098829 129.622014,15.7196721 L136.776815,0.0522248244 L50.7625293,0.0522248244 C47.8379391,-1.05471187e-15 44.8611241,1.82786885 43.8688525,4.0735363 L34.3639344,24.8067916 L105.54637,68.4667447 Z" id="Path"></path>
                <g id="Group" transform="translate(0.000000, 22.456674)">
                    <path d="M20.524356,32.69274 L54.104918,53.3215457 L16.5552693,53.3215457 C11.3850117,53.3737705 9.81826698,56.2461358 7.36370023,61.6252927 L0.156674473,77.29274 L86.1709602,77.29274 C89.1477752,77.29274 92.0723653,75.4648712 93.1168618,73.2192037 L102.569555,52.4859485 L31.4393443,8.82599532 L20.524356,32.69274 Z" id="Path"></path>
                    <path d="M454.355972,18.3831382 C454.355972,12.5339578 452.632553,8.25152225 449.237939,5.58805621 C445.843326,2.92459016 440.203044,1.61896956 432.317096,1.61896956 L413.098361,1.61896956 L413.098361,53.217096 L421.819906,53.217096 L421.819906,35.8784543 L433.257143,35.8784543 L445.582201,53.217096 L456.653864,53.217096 L443.232084,34.4683841 C450.648009,32.2227166 454.355972,26.8957845 454.355972,18.3831382 Z M432.734895,27.940281 L421.872131,27.940281 L421.872131,9.50491803 L432.943794,9.50491803 C437.644028,9.50491803 440.881967,10.1316159 442.709836,11.3850117 C444.537705,12.6384075 445.425527,14.9362998 445.425527,18.3309133 C445.425527,21.7255269 444.537705,24.1278689 442.762061,25.6946136 C440.986417,27.2091335 437.644028,27.940281 432.734895,27.940281 Z" id="Shape"></path>
                    <path d="M187.434895,28.4103044 C184.771429,26.1124122 180.750117,24.2845433 175.47541,23.0311475 C170.200703,21.7777518 166.753864,20.5765808 165.08267,19.4276347 C163.4637,18.3309133 162.628103,16.7119438 162.628103,14.6229508 C162.628103,12.5339578 163.4637,10.9672131 165.08267,9.92271663 C166.701639,8.87822014 168.790632,8.3559719 171.297424,8.3559719 C173.804215,8.3559719 176.415457,8.77377049 179.026698,9.66159251 C181.637939,10.5494145 183.726932,11.6983607 185.241452,13.0562061 L189.889461,6.47587822 C187.539344,4.49133489 184.719204,2.97681499 181.481265,1.88009368 C178.243326,0.783372365 174.953162,0.261124122 171.662998,0.261124122 C166.544965,0.261124122 162.262529,1.56674473 158.763466,4.12576112 C155.316628,6.68477752 153.540984,10.39274 153.540984,15.1451991 C153.540984,19.8976581 155.055504,23.4489461 158.136768,25.7990632 C159.651288,27.052459 161.426932,28.0447307 163.359251,28.7758782 C165.343794,29.5592506 168.216159,30.3948478 171.976347,31.2826698 C175.788759,32.1704918 178.452225,33.2149883 179.966745,34.3117096 C181.533489,35.4084309 182.316862,36.9751756 182.316862,38.959719 C182.316862,40.9442623 181.481265,42.5632319 179.862295,43.7644028 C178.191101,44.9655738 175.997658,45.5922717 173.177518,45.5922717 C167.589461,45.5922717 162.15808,43.3466042 156.935597,38.8030445 L151.451991,45.3833724 C157.71897,50.9192037 164.87377,53.7393443 172.916393,53.7393443 C178.452225,53.7393443 182.891335,52.329274 186.285948,49.5091335 C189.680562,46.688993 191.403981,43.0332553 191.403981,38.5419204 C191.456206,34.1550351 190.150585,30.7081967 187.434895,28.4103044 Z" id="Path"></path>
                    <rect id="Rectangle" x="213.181733" y="1.61896956" width="8.72154567" height="51.5981265"></rect>
                    <polygon id="Path" points="255.274941 1.61896956 246.553396 1.61896956 246.553396 53.217096 275.1726 53.217096 278.828337 44.9655738 255.274941 44.9655738"></polygon>
                    <polygon id="Path" points="311.207728 40.1608899 295.331382 1.61896956 285.617564 1.61896956 306.35082 53.217096 316.064637 53.217096 336.850117 1.61896956 327.084075 1.61896956"></polygon>
                    <polygon id="Path" points="362.179157 31.230445 386.881499 31.230445 386.881499 23.4489461 362.179157 23.4489461 362.179157 9.81826698 389.701639 9.81826698 389.701639 1.61896956 353.457611 1.61896956 353.457611 53.217096 390.589461 53.217096 390.589461 45.0177986 362.179157 45.0177986"></polygon>
                    <polygon id="Path" points="645.446604 44.9655738 645.446604 1.61896956 636.725059 1.61896956 636.725059 53.217096 665.344262 53.217096 669 44.9655738"></polygon>
                    <path d="M555.411007,1.61896956 L532.693208,53.217096 L541.989227,53.217096 L547.159485,41.4665105 L573.010773,41.4665105 L578.18103,53.217096 L587.477049,53.217096 L564.759251,1.61896956 L555.411007,1.61896956 Z M550.710773,33.4238876 L560.111241,12.1683841 L569.459485,33.4238876 L550.710773,33.4238876 Z" id="Shape"></path>
                    <rect id="Rectangle" x="604.972365" y="1.61896956" width="8.72154567" height="51.5981265"></rect>
                    <path d="M518.070258,18.3831382 C518.070258,12.5339578 516.346838,8.25152225 512.952225,5.58805621 C509.557611,2.92459016 503.91733,1.61896956 496.031382,1.61896956 L476.812646,1.61896956 L476.812646,53.217096 L485.534192,53.217096 L485.534192,35.8784543 L496.971429,35.8784543 L509.296487,53.217096 L520.36815,53.217096 L506.94637,34.4683841 C514.362295,32.2227166 518.070258,26.8957845 518.070258,18.3831382 Z M496.44918,27.940281 L485.586417,27.940281 L485.586417,9.50491803 L496.65808,9.50491803 C501.358314,9.50491803 504.596253,10.1316159 506.424122,11.3850117 C508.251991,12.6384075 509.139813,14.9362998 509.139813,18.3309133 C509.139813,21.7255269 508.251991,24.1278689 506.476347,25.6946136 C504.700703,27.2091335 501.358314,27.940281 496.44918,27.940281 Z" id="Shape"></path>
                </g>
            </g>
        </g>
    </g>
</svg>