<svg width="306" height="46" viewBox="0 0 306 46" fill="none" xmlns="http://www.w3.org/2000/svg">
<path d="M14.2993 14.3096L9.31326 25.2357L24.6747 34.667H7.48404C5.10901 34.6915 4.39601 36.0044 3.26997 38.4778L0 45.6422H39.3429C40.7 45.6422 42.0523 44.8063 42.5194 43.7786L46.8515 34.2883L14.2993 14.3096Z" fill="white"/>
<path d="M48.2006 31.3278L53.1867 20.4016L37.8252 10.9753H55.0159C57.3909 10.9507 58.1039 9.6378 59.23 7.16442L62.4999 0H23.1571C21.7999 0 20.4477 0.835931 19.9805 1.86363L15.6484 11.3539L48.2006 31.3278Z" fill="#00C575"/>
<path d="M202.698 26.0369C206.096 25.0239 207.797 22.5702 207.797 18.6757C207.797 15.9959 207.02 14.0486 205.466 12.8341C203.912 11.6195 201.336 11.0098 197.731 11.0098H188.949V34.6174H192.937V26.681H198.174L203.814 34.6174H208.879L202.698 26.0369ZM197.899 23.0668H192.932V14.6239H197.997C200.136 14.6239 201.621 14.9091 202.457 15.4845C203.288 16.0598 203.706 17.117 203.706 18.661C203.706 20.205 203.303 21.3261 202.491 22.0244C201.685 22.7177 200.151 23.0668 197.899 23.0668Z" fill="white"/>
<path d="M78.3184 14.1176C77.1579 14.1176 76.2089 14.3536 75.4615 14.8257C74.719 15.2977 74.3453 16.0156 74.3453 16.9696C74.3453 17.9284 74.719 18.6562 75.4615 19.1676C76.204 19.6741 77.7873 20.2199 80.2066 20.805C82.6259 21.3902 84.4502 22.2114 85.6795 23.2735C86.9039 24.3307 87.5186 25.8895 87.5186 27.9498C87.5186 30.0101 86.7416 31.682 85.1878 32.9654C83.6339 34.2488 81.5933 34.888 79.0757 34.888C75.3828 34.888 72.1079 33.6145 69.2461 31.0722L71.744 28.0678C74.1289 30.138 76.6072 31.1755 79.174 31.1755C80.4574 31.1755 81.4753 30.9001 82.2325 30.3494C82.9849 29.7987 83.3635 29.066 83.3635 28.1563C83.3635 27.2417 83.0095 26.5336 82.3014 26.0271C81.5933 25.5207 80.3689 25.0585 78.638 24.6405C76.9022 24.2225 75.5844 23.8439 74.6846 23.4899C73.7847 23.1407 72.9832 22.6834 72.2849 22.1229C70.8884 21.0656 70.1902 19.443 70.1902 17.2597C70.1902 15.0764 70.9819 13.3948 72.5701 12.2097C74.1584 11.0296 76.1204 10.4346 78.4659 10.4346C79.9755 10.4346 81.4704 10.6804 82.9603 11.1771C84.4453 11.6737 85.7287 12.372 86.8105 13.2718L84.6813 16.2763C83.9831 15.6468 83.039 15.1256 81.8441 14.7224C80.6541 14.3192 79.4789 14.1176 78.3184 14.1176Z" fill="white"/>
<path d="M101.444 11.0098H97.4609V34.6224H101.444V11.0098Z" fill="white"/>
<path d="M112.727 34.6174V11.0098H116.71V30.8361H127.488L125.821 34.6174H112.727Z" fill="white"/>
<path d="M144.532 34.6174H140.072L130.582 11.0098H135.042L142.305 28.6381L149.568 11.0098H154.023L144.532 34.6174Z" fill="white"/>
<path d="M178.211 11.0098V14.7567H165.608V21.0065H176.927V24.5519H165.608V30.8705H178.614V34.6174H161.625V11.0098H178.211Z" fill="white"/>
<path d="M291.238 34.6174V11.0098H295.221V30.8361H306L304.333 34.6174H291.238Z" fill="white"/>
<path d="M268.696 34.6175L258.291 11.0049H254.038L243.633 34.6175H247.891L250.256 29.2479H262.077L264.443 34.6175H268.696ZM260.455 25.5648H251.879L256.167 15.8385L260.455 25.5648Z" fill="white"/>
<path d="M280.691 11.0098H276.703V34.6224H280.691V11.0098Z" fill="white"/>
<path d="M231.846 26.0369C235.249 25.0239 236.945 22.5702 236.945 18.6757C236.945 15.9959 236.169 14.0486 234.615 12.8341C233.061 11.6195 230.484 11.0098 226.88 11.0098H218.098V34.6174H222.086V26.681H227.322L232.962 34.6174H238.027L231.846 26.0369ZM227.047 23.0668H222.081V14.6239H227.145C229.284 14.6239 230.769 14.9091 231.605 15.4845C232.436 16.0598 232.854 17.117 232.854 18.661C232.854 20.205 232.451 21.3261 231.64 22.0244C230.833 22.7177 229.299 23.0668 227.047 23.0668Z" fill="white"/>
</svg>
