<?xml version="1.0" encoding="utf-8"?>
<!-- Generator: Adobe Illustrator 24.3.0, SVG Export Plug-In . SVG Version: 6.00 Build 0)  -->
<svg version="1.1" id="Layer_1" xmlns="http://www.w3.org/2000/svg" xmlns:xlink="http://www.w3.org/1999/xlink" x="0px" y="0px"
	 viewBox="0 0 1282 191" style="enable-background:new 0 0 1282 191;" xml:space="preserve">
<style type="text/css">
	.st0{fill:#00C575;}
	.st1{fill:#002D30;}
</style>
<g>
	<path class="st0" d="M202.1,131.1l20.9-45.7L158.7,46h71.9c9.9-0.1,12.9-5.6,17.6-15.9l13.7-30H97.2C91.6,0,85.9,3.5,84,7.8
		L65.8,47.5L202.1,131.1z"/>
	<g>
		<path class="st1" d="M39.3,105.6l64.3,39.5H31.7c-9.9,0.1-12.9,5.6-17.6,15.9L0.3,191H165c5.7,0,11.3-3.5,13.3-7.8l18.1-39.7
			L60.2,59.9L39.3,105.6z"/>
		<path class="st1" d="M870,78.2c0-11.2-3.3-19.4-9.8-24.5c-6.5-5.1-17.3-7.6-32.4-7.6h-36.8v98.8h16.7v-33.2h21.9l23.6,33.2h21.2
			L848.7,109C862.9,104.7,870,94.5,870,78.2z M828.6,96.5h-20.8V61.2H829c9,0,15.2,1.2,18.7,3.6c3.5,2.4,5.2,6.8,5.2,13.3
			c0,6.5-1.7,11.1-5.1,14.1C844.4,95.1,838,96.5,828.6,96.5z"/>
		<path class="st1" d="M358.9,97.4c-5.1-4.4-12.8-7.9-22.9-10.3c-10.1-2.4-16.7-4.7-19.9-6.9c-3.1-2.1-4.7-5.2-4.7-9.2
			c0-4,1.6-7,4.7-9c3.1-2,7.1-3,11.9-3c4.8,0,9.8,0.8,14.8,2.5c5,1.7,9,3.9,11.9,6.5l8.9-12.6c-4.5-3.8-9.9-6.7-16.1-8.8
			c-6.2-2.1-12.5-3.1-18.8-3.1c-9.8,0-18,2.5-24.7,7.4c-6.6,4.9-10,12-10,21.1c0,9.1,2.9,15.9,8.8,20.4c2.9,2.4,6.3,4.3,10,5.7
			c3.8,1.5,9.3,3.1,16.5,4.8c7.3,1.7,12.4,3.7,15.3,5.8c3,2.1,4.5,5.1,4.5,8.9c0,3.8-1.6,6.9-4.7,9.2c-3.2,2.3-7.4,3.5-12.8,3.5
			c-10.7,0-21.1-4.3-31.1-13l-10.5,12.6c12,10.6,25.7,16,41.1,16c10.6,0,19.1-2.7,25.6-8.1c6.5-5.4,9.8-12.4,9.8-21
			C366.6,108.4,364.1,101.8,358.9,97.4z"/>
		<rect x="408.2" y="46.1" class="st1" width="16.7" height="98.8"/>
		<polygon class="st1" points="488.8,46.1 472.1,46.1 472.1,144.9 526.9,144.9 533.9,129.1 488.8,129.1 		"/>
		<polygon class="st1" points="595.9,119.9 565.5,46.1 546.9,46.1 586.6,144.9 605.2,144.9 645,46.1 626.3,46.1 		"/>
		<polygon class="st1" points="693.5,102.8 740.8,102.8 740.8,87.9 693.5,87.9 693.5,61.8 746.2,61.8 746.2,46.1 676.8,46.1 
			676.8,144.9 747.9,144.9 747.9,129.2 693.5,129.2 		"/>
		<polygon class="st1" points="1235.9,129.1 1235.9,46.1 1219.2,46.1 1219.2,144.9 1274,144.9 1281,129.1 		"/>
		<path class="st1" d="M1063.5,46.1l-43.5,98.8h17.8l9.9-22.5h49.5l9.9,22.5h17.8l-43.5-98.8H1063.5z M1054.5,107l18-40.7l17.9,40.7
			H1054.5z"/>
		<rect x="1158.4" y="46.1" class="st1" width="16.7" height="98.8"/>
		<path class="st1" d="M992,78.2c0-11.2-3.3-19.4-9.8-24.5c-6.5-5.1-17.3-7.6-32.4-7.6h-36.8v98.8h16.7v-33.2h21.9l23.6,33.2h21.2
			L970.7,109C984.9,104.7,992,94.5,992,78.2z M950.6,96.5h-20.8V61.2H951c9,0,15.2,1.2,18.7,3.6c3.5,2.4,5.2,6.8,5.2,13.3
			c0,6.5-1.7,11.1-5.1,14.1C966.4,95.1,960,96.5,950.6,96.5z"/>
	</g>
</g>
</svg>
